<?xml version="1.0" standalone="no"?>
<!DOCTYPE svg PUBLIC "-//W3C//DTD SVG 20010904//EN"
 "http://www.w3.org/TR/2001/REC-SVG-20010904/DTD/svg10.dtd">
<svg version="1.0" xmlns="http://www.w3.org/2000/svg"
 width="600.000000pt" height="600.000000pt" viewBox="0 0 600.000000 600.000000"
 preserveAspectRatio="xMidYMid meet">
<metadata>
Created by potrace 1.11, written by Peter Selinger 2001-2013
</metadata>
<g transform="translate(0.000000,600.000000) scale(0.100000,-0.100000)"
fill="#000000" stroke="none">
<path d="M1479 4576 c-2 -2 -39 -7 -83 -10 -43 -3 -81 -8 -85 -10 -3 -2 -22
-7 -41 -10 -59 -9 -210 -55 -289 -88 -442 -184 -769 -547 -916 -1018 -9 -30
-19 -66 -21 -80 -3 -14 -7 -38 -11 -55 -22 -99 -28 -174 -27 -325 1 -200 20
-319 78 -489 178 -520 610 -917 1131 -1037 182 -41 423 -56 566 -33 30 5 72
11 94 14 167 24 411 123 585 238 68 45 101 70 192 148 l30 25 -52 55 c-206
216 -176 198 -240 143 -127 -108 -287 -195 -446 -242 -134 -40 -156 -43 -329
-48 -227 -5 -373 26 -570 121 -345 167 -587 472 -676 852 -33 142 -33 415 0
531 5 17 8 32 6 32 -2 0 9 38 25 85 147 434 491 741 945 841 83 19 324 26 415
12 520 -77 939 -471 1045 -983 16 -81 22 -140 30 -322 3 -66 7 -127 10 -135 2
-7 6 -31 9 -53 12 -105 84 -332 144 -450 176 -345 484 -627 837 -764 129 -51
200 -70 360 -96 78 -13 372 -14 440 -2 17 3 46 8 65 12 214 38 462 144 642
274 91 65 234 200 305 287 68 83 152 219 203 327 45 95 105 269 116 334 2 15
6 37 9 49 19 86 28 405 13 494 -3 19 -9 55 -13 80 -9 53 -50 206 -66 247 -7
15 -13 33 -14 39 -6 26 -85 184 -125 249 -286 467 -774 748 -1315 760 -230 5
-424 -30 -629 -112 -158 -63 -330 -167 -448 -273 l-57 -51 47 -48 c26 -27 77
-81 115 -120 37 -39 71 -71 75 -71 4 0 27 19 52 41 125 114 360 234 515 264
153 30 191 34 326 31 81 -2 151 -6 156 -9 4 -3 28 -8 53 -12 194 -29 458 -168
620 -326 173 -169 307 -400 344 -595 2 -11 9 -37 14 -59 20 -76 31 -294 18
-371 -3 -16 -8 -49 -11 -74 -14 -104 -54 -228 -112 -344 -159 -323 -458 -568
-799 -656 -121 -31 -156 -35 -334 -34 -218 1 -340 28 -526 118 -410 201 -676
600 -699 1051 -15 291 -13 265 -41 405 -94 460 -429 885 -861 1091 -78 37
-258 102 -313 113 -93 18 -143 27 -172 32 -42 6 -304 15 -309 10z"/>
<path d="M4343 3793 c-79 -27 -150 -126 -148 -208 1 -42 31 -116 63 -151 26
-30 96 -64 139 -69 83 -8 178 47 218 125 10 19 18 57 19 85 5 156 -143 267
-291 218z"/>
<path d="M1000 3522 c0 -7 9 -32 19 -55 11 -23 110 -269 221 -547 111 -278
207 -516 213 -530 12 -24 15 -24 124 -26 72 0 114 3 116 10 20 50 152 378 162
401 7 17 43 107 80 200 38 94 74 184 81 200 20 47 115 286 129 325 l12 35
-133 0 c-75 0 -137 -4 -142 -10 -5 -6 -74 -187 -153 -402 -79 -216 -147 -393
-150 -393 -3 0 -17 33 -31 73 -27 76 -31 85 -178 482 l-93 250 -138 0 c-108 0
-139 -3 -139 -13z"/>
<path d="M3767 3206 c-99 -27 -159 -109 -160 -218 0 -144 148 -248 286 -202
123 43 185 178 132 292 -49 106 -150 156 -258 128z"/>
<path d="M4933 3198 c-65 -24 -117 -80 -137 -147 -16 -56 -14 -86 13 -146 63
-142 242 -175 351 -66 168 168 -6 442 -227 359z"/>
<path d="M4350 2610 c-182 -62 -209 -300 -44 -396 146 -86 326 17 328 186 1
91 -44 160 -131 201 -58 27 -94 29 -153 9z"/>
</g>
</svg>
